<svg viewBox="0 0 1080 1080" fill="none" xmlns="http://www.w3.org/2000/svg">      <defs>  <filter id="filter" x="-20%" y="-20%" width="140%" height="140%" filterUnits="objectBoundingBox" primitiveUnits="userSpaceOnUse" color-interpolation-filters="linearRGB">    <feMorphology operator="dilate" radius="20 20" in="SourceAlpha" result="morphology"/>    <feFlood flood-color="#ffffff" flood-opacity="1" result="flood"/>    <feComposite in="flood" in2="morphology" operator="in" result="composite"/>    <feMerge result="merge">          <feMergeNode in="composite" result="mergeNode"/>      <feMergeNode in="SourceGraphic" result="mergeNode1"/>      </feMerge>  </filter></defs>      <g id="notion-avatar" filter="url(#filter)">        <g id="notion-avatar-face" fill="#ffffff">      <!--?xml version="1.0" encoding="UTF-8"?-->    <title>Face/ 3</title>    <g id="Face/-3" stroke="none" stroke-width="1" fill-rule="evenodd" stroke-linecap="round" stroke-linejoin="round">        <path d="M532,379 C664.54834,379 772,486.45166 772,619 C772,751.54834 704.54834,899 532,899 C402.610491,899 332.317998,816.086314 305.249034,718.717925 C264.225797,715.291578 232,680.909158 232,639 C232,599.134956 261.158843,566.080325 299.312086,560.00055 C325.599297,455.979213 419.809919,379 532,379 Z M295.858895,624.545187 L304.141105,655.454813" id="Path" stroke="#000000" stroke-width="24"/>    </g>    </g><g id="notion-avatar-nose">      <!--?xml version="1.0" encoding="UTF-8"?-->    <title>Nose/ 5</title>    <g id="Nose/-5" stroke="none" stroke-width="1" fill="none" fill-rule="evenodd" stroke-linecap="round" stroke-linejoin="round">        <path d="M673,568 C662.55102,590.836147 657.326531,613.414126 657.326531,635.733939 C657.326531,669.213657 673,686.992054 670.061224,702.552554 C668.102041,712.92622 653.081633,714.756867 625,708.044495" id="Path" stroke="#000000" stroke-width="16"/>    </g>    </g><g id="notion-avatar-mouth">      <g id="Mouth/ 12"><g id="Group"><path id="Path" fill-rule="evenodd" clip-rule="evenodd" d="M543.87 801.555C524.148 789.209 514.057 767.766 521.396 758.019C528.734 748.272 569 762.637 609 762.319C649 762 689.266 748.272 696.604 758.019C703.943 767.766 693.852 789.209 674.13 801.555C665.101 807.207 637.818 814 609.443 814C581.069 814 552.807 807.15 543.87 801.555Z" stroke="black" stroke-width="16" stroke-linecap="round" stroke-linejoin="round"/><path id="Path_2" d="M569.322 804C569.322 804 589.161 796 609 796C628.838 796 648.677 804 648.677 804" stroke="black" stroke-width="8" stroke-linecap="round" stroke-linejoin="round"/></g></g>    </g><g id="notion-avatar-eyes">      <!--?xml version="1.0" encoding="UTF-8"?-->    <title>Eyes/ 9</title>    <g id="Eyes/-9" stroke="none" stroke-width="1" fill="none" fill-rule="evenodd">        <path d="M570,507 C575.854822,507 581.122051,511.025253 584.779642,517.440484 L578,531 L589.369946,531.000208 C589.781247,533.557105 590,536.237678 590,539 C590,556.673112 581.045695,571 570,571 C558.954305,571 550,556.673112 550,539 C550,521.326888 558.954305,507 570,507 Z M708,507 C713.854822,507 719.122051,511.025253 722.779642,517.440484 L716,531 L727.369946,531.000208 C727.781247,533.557105 728,536.237678 728,539 C728,556.673112 719.045695,571 708,571 C696.954305,571 688,556.673112 688,539 C688,521.326888 696.954305,507 708,507 Z" id="Combined-Shape" fill="#000000"/>    </g>    </g><g id="notion-avatar-eyebrows">      <g id="Eyebrows/ 12"><g id="Group"><path id="Path" fill-rule="evenodd" clip-rule="evenodd" d="M681 505.316C681 505.316 698.641 492.863 706.392 490.578C714.144 488.294 738 489.316 738 489.316L755 494.913C755 494.913 730.25 494.897 716.549 497.08C702.848 499.263 681 505.316 681 505.316Z" fill="black" stroke="black" stroke-width="8" stroke-linecap="round" stroke-linejoin="round"/><path id="Path_2" fill-rule="evenodd" clip-rule="evenodd" d="M597 505.316C597 505.316 579.359 492.863 571.608 490.578C563.856 488.294 540 489.316 540 489.316L523 494.913C523 494.913 547.75 494.897 561.451 497.08C575.152 499.263 597 505.316 597 505.316Z" fill="black" stroke="black" stroke-width="8" stroke-linecap="round" stroke-linejoin="round"/></g></g>    </g><g id="notion-avatar-glasses">      <!--?xml version="1.0" encoding="UTF-8"?-->    <title>Glasses/ 0</title>    <g id="Glasses/-0" stroke="none" stroke-width="1" fill="none" fill-rule="evenodd"/>    </g><g id="notion-avatar-hair">      <g id="Hairstyle/ 53"><path id="Path" fill-rule="evenodd" clip-rule="evenodd" d="M613.5 244C654.093 244 687 274.026 687 316L686.997 316.645C689.603 316.22 692.277 316 695 316C723.167 316 748 330 770 373C792 416 781 435 792 448C803 461 820 467 828 493C836 519 815.241 509.298 816 550C816.54 578.966 832 566 832 617C832 635.647 819.419 660.857 821 689C823.742 737.831 843 729 832 770C821 811 720 812 720 812C720 812 772.427 660.662 768 621C763.573 581.338 746 498 746 498C746 498 729 468 702 468C675 468 688.707 428 659 428C637 428 615 461 615 461C615 461 598 428 573 428C548 428 533 434 510 461C487 488 450.813 483.582 443 498C433.328 515.849 463 540 443 556C423 572 396 533 388 547C380 561 364 604 364 604C364 604 361 585 347 570C333 555 238 566 238 634C238 702 328 713 328 713C336.734 731.3 356.173 756.65 388 790C407.189 810.107 459 841 459 841C459 841 452.439 895.974 450 915C447.857 931.712 419.356 966.144 377 979C361.306 983.763 334.64 977.763 295 973C295 973 282 983 282 992C282 1001 294.5 1015.13 311 1014C295.75 1022.85 280.417 1027.51 265 1028C249.874 1028.48 233.545 1025.6 216.013 1019.36L215 1019L214.986 1018.93C193.84 1014.34 178 995.521 178 973C178 953.068 190.407 936.034 207.92 929.2C209.175 926.563 209.868 923.83 210 921C210.144 917.911 209.623 914.604 208.438 911.078C194.977 902.812 186 887.954 186 871C186 854.808 194.188 840.529 206.649 832.076C206.968 829.645 164 798 164 770C164 742 181.927 736.836 182 725C182.155 699.814 167.923 696.541 171 675C174 654 193.652 643.114 196 632C201.615 605.424 194.409 567.818 196 556C203 504 246.225 477.707 245 477C221.564 463.469 238 428 249 416C260 404 286.64 394.956 298 390C296.038 369.821 297 336 316 317C335 298 356.303 292.454 388.365 297.864C392.538 265.434 432.419 240 481 240C512.538 240 540.41 250.719 557.226 267.112C570.706 250.535 590.913 244 613.5 244Z" fill="black" stroke="black" stroke-width="12" stroke-linecap="round" stroke-linejoin="round"/></g>    </g><g id="notion-avatar-accessories">      <!--?xml version="1.0" encoding="UTF-8"?-->    <title>Accessories/ 6</title>    <g id="Accessories/-6" stroke="none" stroke-width="1" fill="none" fill-rule="evenodd" stroke-linecap="round" stroke-linejoin="round">        <path d="M281,720 C288.333333,736.666667 295.666667,742.666667 303,738 C314,731 300.685557,703.463464 300.685557,697.308048 C300.685557,691.152631 308.938123,687.771131 312.938123,691.142601 C316.938123,694.514071 320.748656,704.392476 323,717 C328,745 315,757 300,758 C284.006216,759.066252 271.672883,743.732919 263,712 L281,720 Z" id="Path-87" stroke="#000000" stroke-width="8" fill="#FFFFFF"/>    </g>    </g><g id="notion-avatar-details">      <!--?xml version="1.0" encoding="UTF-8"?-->    <title>Details/ 3</title>    <g id="Details/-3" stroke="none" stroke-width="1" fill="none" fill-rule="evenodd" stroke-linecap="round" stroke-linejoin="round">        <path d="M491.752948,639.020916 L486.914511,658.42683 M511.752948,639.020916 L506.914511,658.42683 M531.752948,639.020916 L526.914511,658.42683 M789.247052,639.020916 L794.085489,658.42683 M769.247052,639.020916 L774.085489,658.42683 M749.247052,639.020916 L754.085489,658.42683" id="Combined-Shape" stroke="#000000" stroke-width="12"/>    </g>    </g><g id="notion-avatar-beard">      <!--?xml version="1.0" encoding="UTF-8"?-->    <title>Beard/ 0</title>    <g id="Beard/-0" stroke="none" stroke-width="1" fill="none" fill-rule="evenodd"/>    </g>      </g>      </svg>